<?xml version="1.0" encoding="UTF-8"?>
<svg version="1.1" xmlns="http://www.w3.org/2000/svg" width="1024" height="1024">
<path d="M0 0 C337.92 0 675.84 0 1024 0 C1024 337.92 1024 675.84 1024 1024 C686.08 1024 348.16 1024 0 1024 C0 686.08 0 348.16 0 0 Z " fill="#FDFDFB" transform="translate(0,0)"/>
<path d="M0 0 C3.62952253 -0.21552157 7.25465978 -0.35036528 10.88867188 -0.46533203 C12.65090088 -0.5673291 12.65090088 -0.5673291 14.44873047 -0.67138672 C22.55878404 -0.80474113 22.55878404 -0.80474113 25.63793945 1.81958008 C27.27159841 4.2016252 28.50668532 6.62164 29.76367188 9.22216797 C30.94038354 11.25762951 32.12724814 13.28724328 33.32226562 15.31201172 C34.28146378 17.00012631 35.24055371 18.68830741 36.1953125 20.37893677 C37.58936521 22.84690914 38.99144286 25.31029387 40.39285278 27.77409363 C41.11805811 29.04928285 41.84288988 30.32468459 42.56735229 31.60029602 C51.80742441 47.86934019 61.21848531 64.03332464 70.78100586 80.11474609 C77.25627242 91.0188024 83.59267743 102.00050839 89.90917969 112.99707031 C91.76032803 116.21635278 93.61650552 119.43267692 95.47460938 122.64794922 C100.66415019 131.62864344 105.85184662 140.60997189 110.98242188 149.62451172 C111.3357106 150.24477234 111.68899933 150.86503296 112.05299377 151.50408936 C113.74971044 154.48321239 115.44420377 157.46352612 117.13452148 160.44628906 C117.75335205 161.53377441 118.37218262 162.62125977 119.00976562 163.74169922 C119.61288574 164.80469238 120.21600586 165.86768555 120.83740234 166.96289062 C122.20688304 169.28007279 123.59879976 171.51981075 125.08447266 173.75878906 C125.46442886 174.3407756 125.84438507 174.92276215 126.2358551 175.52238464 C127.30115511 177.14238187 128.38741412 178.74853994 129.47485352 180.35375977 C130.76367188 183.22216797 130.76367188 183.22216797 130.11206055 185.82592773 C129.66709229 186.61668701 129.22212402 187.40744629 128.76367188 188.22216797 C128.24401855 189.2957959 128.24401855 189.2957959 127.71386719 190.39111328 C126.48576285 192.75433233 125.25499404 195.11585695 124.01367188 197.47216797 C123.56846191 198.31884033 123.12325195 199.1655127 122.66455078 200.0378418 C119.67668613 205.65756328 116.55172244 211.09444099 112.76367188 216.22216797 C113.73304688 216.32400391 114.70242188 216.42583984 115.70117188 216.53076172 C120.27506661 217.19089964 124.44747727 218.67243067 128.76367188 220.28466797 C129.59455322 220.59484863 130.42543457 220.9050293 131.28149414 221.22460938 C148.41709881 227.80045307 162.44828856 237.57661339 175.76367188 250.22216797 C176.23804688 250.66931152 176.71242188 251.11645508 177.20117188 251.57714844 C188.69832681 262.47923578 197.91506716 274.4113649 205.76367188 288.22216797 C206.15554688 288.9048877 206.54742188 289.58760742 206.95117188 290.29101562 C227.34629794 326.19759108 237.45626329 368.77888621 226.69726562 409.38232422 C216.27741235 446.06144347 192.52393397 476.1866794 159.28320312 494.83544922 C148.85811596 500.46504174 137.89750364 504.83386061 126.51367188 508.09716797 C125.85439697 508.28835205 125.19512207 508.47953613 124.51586914 508.67651367 C112.06727972 511.99463134 99.32237888 512.60258856 86.51367188 512.53466797 C85.7944455 512.53284515 85.07521912 512.53102234 84.334198 512.52914429 C72.92242834 512.48062526 61.89907449 511.85692967 50.76367188 509.22216797 C50.01666016 509.05056152 49.26964844 508.87895508 48.5 508.70214844 C37.37255624 506.07522659 27.02889964 502.23137048 16.76367188 497.22216797 C16.1283252 496.91408203 15.49297852 496.60599609 14.83837891 496.28857422 C-21.18873365 478.57363594 -47.91234946 448.10509656 -63.23632812 411.22216797 C-63.23632812 410.56216797 -63.23632812 409.90216797 -63.23632812 409.22216797 C-56.85198463 408.83990136 -50.47060366 408.57846662 -44.07739258 408.39819336 C-41.90667544 408.3230289 -39.73671132 408.22084945 -37.56860352 408.09057617 C-20.02675115 407.0634413 -20.02675115 407.0634413 -15.42425537 410.62402344 C-12.43310508 414.1606952 -10.65157 418.15958638 -8.97628784 422.44491577 C-8.03633052 424.70252681 -6.78139888 426.52024517 -5.26757812 428.43310547 C-4.84694092 428.97032227 -4.42630371 429.50753906 -3.99291992 430.06103516 C-3.57824463 430.56795898 -3.16356934 431.07488281 -2.73632812 431.59716797 C-2.27331299 432.17112305 -1.81029785 432.74507812 -1.33325195 433.33642578 C20.44011151 459.95371738 46.80955462 468.1476739 80.76367188 472.22216797 C80.76367188 441.53216797 80.76367188 410.84216797 80.76367188 379.22216797 C22.68367187 379.22216797 -35.39632813 379.22216797 -95.23632812 379.22216797 C-90.16457217 369.71262555 -85.05717361 360.29749844 -79.67382812 350.97216797 C-74.23550344 341.51715936 -68.88258091 332.02160901 -63.61132812 322.47216797 C-58.92567183 313.99062217 -54.1476972 305.57501981 -49.23632812 297.22216797 C-42.3364681 285.48200608 -35.72031874 273.59375042 -29.140625 261.671875 C-26.57646725 257.02680461 -24.00697883 252.38470155 -21.43334961 247.74487305 C-20.24134902 245.59575112 -19.05059527 243.44593675 -17.86157227 241.29516602 C-13.96051367 234.25913806 -9.98610997 227.26713573 -5.9909668 220.28417969 C-5.43633507 219.3141954 -4.88170334 218.34421112 -4.31026459 217.34483337 C-2.95255725 214.97045614 -1.59457172 212.59623848 -0.23632812 210.22216797 C-1.15532678 210.22308976 -2.07432543 210.22401155 -3.02117252 210.22496128 C-25.43329745 210.24709301 -47.84542048 210.26361674 -70.25755405 210.27398014 C-81.09610449 210.27912564 -91.93464762 210.2861349 -102.77319336 210.29760742 C-112.22547423 210.30760778 -121.6777498 210.31403409 -131.13003582 210.31625646 C-136.13000231 210.31755451 -141.12995363 210.32058261 -146.12991524 210.32789803 C-150.84696629 210.33474286 -155.56399609 210.3367679 -160.28105164 210.33527565 C-162.00180108 210.33554821 -163.72255132 210.33750269 -165.44329643 210.34137344 C-175.75605158 210.36341143 -185.95429696 210.05946222 -196.23632812 209.22216797 C-194.94143609 205.22526445 -193.53655562 201.67329923 -191.47070312 198.01123047 C-190.64143311 196.53444824 -190.64143311 196.53444824 -189.79541016 195.02783203 C-188.89991455 193.45340332 -188.89991455 193.45340332 -187.98632812 191.84716797 C-187.36226074 190.74083008 -186.73819336 189.63449219 -186.09521484 188.49462891 C-181.91815447 181.11372232 -177.65677944 173.78461107 -173.36132812 166.47216797 C-168.20367023 157.69158407 -163.20432263 148.83268373 -158.29882812 139.90966797 C-157.96352081 139.30015289 -157.6282135 138.69063782 -157.28274536 138.06265259 C-154.29544327 132.63071337 -151.31458519 127.19526723 -148.34179688 121.75537109 C-141.25753945 108.80236568 -134.00672045 95.97635924 -126.36132812 83.34716797 C-125.68400635 82.2249585 -125.00668457 81.10274902 -124.30883789 79.9465332 C-117.00145176 67.97902886 -109.39940139 56.75689564 -99.62597656 46.66308594 C-98.27448107 45.26172852 -96.94640282 43.83790485 -95.61914062 42.41357422 C-75.43336933 21.29937725 -47.87476064 7.39201781 -19.23632812 2.22216797 C-18.0271875 1.99787109 -16.81804687 1.77357422 -15.57226562 1.54248047 C-10.38896185 0.74588852 -5.22599282 0.35875479 0 0 Z " fill="#0C2858" transform="translate(537.236328125,248.77783203125)"/>
<path d="M0 0 C0.1967205 0.91842682 0.1967205 0.91842682 0.39741516 1.85540771 C1.7741357 8.28092191 3.15372451 14.70581566 4.53491211 21.13037109 C5.04865534 23.52181758 5.56168941 25.91341654 6.07397461 28.30517578 C6.8143356 31.76115493 7.55732294 35.216561 8.30078125 38.671875 C8.52590897 39.72550232 8.75103668 40.77912964 8.98298645 41.86468506 C10.51065638 48.94851966 12.20189794 55.98002657 14 63 C14.35583664 62.33296555 14.71167328 61.66593109 15.07829285 60.97868347 C22.39496935 47.27397712 29.90208036 33.70604343 37.85546875 20.359375 C39.757106 17.16359136 41.56716768 13.96246314 43.23828125 10.640625 C43.56594482 10.02147217 43.8936084 9.40231934 44.23120117 8.7644043 C45.04024781 7.22387874 45.80783931 5.66175666 46.5703125 4.09765625 C50.77030128 0.47162092 55.62803263 1.06867863 61 1 C61.75162415 0.98935516 62.50324829 0.97871033 63.27764893 0.96774292 C69.43554668 0.89103602 75.59184798 0.90857568 81.75 0.9375 C83.62239463 0.94252635 85.49479058 0.94708724 87.3671875 0.95117188 C91.91149123 0.96208457 96.45573081 0.97928629 101 1 C99.78054406 4.96611127 98.36120986 8.39764431 96.234375 11.95703125 C95.40462158 13.35924927 95.40462158 13.35924927 94.55810547 14.78979492 C93.96143066 15.7872876 93.36475586 16.78478027 92.75 17.8125 C87.68579384 26.38092663 82.71660954 34.99127384 77.875 43.6875 C73.17384553 52.12538619 68.42113293 60.52982795 63.60888672 68.90478516 C59.49696223 76.08267775 55.49714836 83.32022715 51.5 90.5625 C46.64392059 99.35027667 41.66041374 108.03156599 36.43994141 116.60742188 C31.85194652 124.16851212 27.50761923 131.86079589 23.18701172 139.57714844 C22.66896973 140.50172852 22.15092773 141.42630859 21.6171875 142.37890625 C21.15940918 143.1994751 20.70163086 144.02004395 20.22998047 144.86547852 C19.22045337 146.61742283 18.12159966 148.31760051 17 150 C16.68799236 152.54414819 16.68799236 152.54414819 16.7215271 155.44792175 C16.71036362 156.57954239 16.69920013 157.71116302 16.68769836 158.8770752 C16.68445808 160.7403949 16.68445808 160.7403949 16.68115234 162.64135742 C16.67110672 163.94877396 16.6610611 165.25619049 16.65071106 166.60322571 C16.62337828 170.18969804 16.60825201 173.77613102 16.59528303 177.3626802 C16.57966678 181.1103478 16.55287179 184.85793488 16.5272522 188.60554504 C16.48043767 195.70277473 16.44370654 202.80001953 16.41057932 209.89732486 C16.37237679 217.97709692 16.32296176 226.05678816 16.27259517 234.13649213 C16.16923556 250.7576034 16.07998831 267.37875948 16 284 C9.05237339 284.12944138 2.10506939 284.21542258 -4.84350586 284.2746582 C-7.19486092 284.29941603 -9.54614244 284.33323179 -11.8972168 284.37719727 C-49.8940592 285.06864055 -84.34743484 275.68286323 -112.25 249.125 C-127.22388047 233.41364791 -136.18228642 215.09231745 -142.25 194.4375 C-142.4962915 193.61193604 -142.74258301 192.78637207 -142.99633789 191.93579102 C-146.5528248 179.34496742 -147.38735867 166.69722735 -147.3125 153.6875 C-147.30934784 152.95956238 -147.30619568 152.23162476 -147.302948 151.48162842 C-147.23477714 140.74066935 -147.01001502 130.40061836 -144 120 C-143.7201123 119.0193457 -143.44022461 118.03869141 -143.15185547 117.02832031 C-130.85404487 75.0929722 -105.43771601 36.37096626 -67.2734375 13.77734375 C-45.80341517 2.11999272 -23.96864263 -0.21571778 0 0 Z " fill="#0D2958" transform="translate(403,478)"/>
<path d="M0 0 C0 45.54 0 91.08 0 138 C-33.66 138 -67.32 138 -102 138 C-102 97.07292392 -84.76224725 56.99057808 -56.25 27.875 C-42.11929618 13.82952358 -20.7585958 0 0 0 Z " fill="#FBFBFA" transform="translate(528,289)"/>
<path d="M0 0 C2.81045451 3.51306814 4.88912565 6.33845607 6.99609375 10.18359375 C7.5478125 11.18205322 8.09953125 12.1805127 8.66796875 13.20922852 C9.25191406 14.27455811 9.83585938 15.3398877 10.4375 16.4375 C16.03957045 26.55096583 21.8094495 36.54266081 27.72265625 46.4765625 C29.9811166 50.27164426 32.21623194 54.07919598 34.43359375 57.8984375 C35.01109375 58.89302979 35.58859375 59.88762207 36.18359375 60.91235352 C37.34576969 62.91688052 38.50595194 64.92256484 39.6640625 66.92944336 C42.69884575 72.16060836 45.8116216 77.32032766 49.06640625 82.41796875 C49.72455322 83.45896729 50.3827002 84.49996582 51.06079102 85.57250977 C52.32638005 87.5646613 53.60876044 89.54627251 54.90991211 91.51538086 C59.07329723 98.09678894 59.07329723 98.09678894 58.7578125 101.984375 C58.17773438 102.97953125 57.59765625 103.9746875 57 105 C56.58975586 105.74362793 56.17951172 106.48725586 55.75683594 107.25341797 C54.17946533 110.07560661 52.5329573 112.84941804 50.875 115.625 C49.6004285 117.78448734 48.32703801 119.94467208 47.0546875 122.10546875 C46.05646973 123.79808838 46.05646973 123.79808838 45.03808594 125.52490234 C41.64265775 131.30062443 38.32095876 137.11876916 35 142.9375 C34.66516602 143.52360046 34.33033203 144.10970093 33.98535156 144.71356201 C28.65074736 154.05456414 23.39130701 163.43653973 18.15722656 172.83422852 C14.1144057 180.07060111 9.95531511 187.23206889 5.75 194.375 C1.09878346 202.27981805 -3.36848714 210.24358093 -7.54199219 218.41162109 C-10.80745359 224.77853203 -14.37080004 230.77851435 -18 237 C4.275 237.495 4.275 237.495 27 238 C27.66 236.35 28.32 234.7 29 233 C29.61724101 231.76985231 30.25875561 230.55153606 30.92578125 229.34765625 C31.30420166 228.66364746 31.68262207 227.97963867 32.07250977 227.27490234 C32.48170654 226.54480957 32.89090332 225.8147168 33.3125 225.0625 C33.74038818 224.29631348 34.16827637 223.53012695 34.60913086 222.74072266 C38.35357103 216.07611105 42.19118602 209.46658087 46.0625 202.875 C46.63460205 201.89668213 47.2067041 200.91836426 47.79614258 199.91040039 C48.32876709 199.00926514 48.8613916 198.10812988 49.41015625 197.1796875 C49.88590088 196.37257324 50.36164551 195.56545898 50.85180664 194.73388672 C51.23071045 194.1617041 51.60961426 193.58952148 52 193 C52.33 193 52.66 193 53 193 C53 216.76 53 240.52 53 265 C16.7 265 -19.6 265 -57 265 C-55.52567141 260.57701424 -54.29659767 257.47409784 -52.015625 253.5703125 C-51.41741943 252.540271 -50.81921387 251.51022949 -50.20288086 250.44897461 C-49.55843018 249.35206299 -48.91397949 248.25515137 -48.25 247.125 C-47.57312891 245.96327493 -46.8967865 244.80124168 -46.22094727 243.63891602 C-44.1543458 240.08846926 -42.07800638 236.54378022 -40 233 C-37.64461895 228.97987616 -35.29008457 224.95926107 -32.9375 220.9375 C-32.36628418 219.96143799 -31.79506836 218.98537598 -31.20654297 217.97973633 C-26.40721975 209.75358011 -21.74277824 201.45559588 -17.10473633 193.13769531 C-12.01439684 184.00940434 -6.83961996 174.93187466 -1.63964844 165.86572266 C0.16028774 162.71985445 1.95172467 159.56923789 3.7421875 156.41796875 C12.33054571 141.31268979 21.07804409 126.31309936 29.99047852 111.39648438 C33.01832113 106.2788381 36.00384653 101.1362631 39 96 C26.13 95.34 13.26 94.68 0 94 C0 62.98 0 31.96 0 0 Z " fill="#FAFAF9" transform="translate(565,333)"/>
<path d="M0 0 C28.71 0 57.42 0 87 0 C87 32.01 87 64.02 87 97 C80.29138136 97 75.09471968 96.95255703 68.8125 95.375 C68.08909424 95.19678711 67.36568848 95.01857422 66.62036133 94.83496094 C44.53513229 89.13834539 26.05847007 76.88728727 13.97119141 57.29345703 C3.45793672 39.38691494 0 20.53792481 0 0 Z " fill="#FBFBFA" transform="translate(296,629)"/>
<path d="M0 0 C23.43 0 46.86 0 71 0 C71 6.3590287 70.80533848 11.3250338 69.3125 17.3125 C69.04240112 18.41597778 69.04240112 18.41597778 68.7668457 19.54174805 C62.39378327 44.51402559 46.06535346 65.66590367 24.04248047 78.85253906 C16.41521606 83.13751907 8.64824593 86.55862568 0 88 C0 58.96 0 29.92 0 0 Z " fill="#FAF9F8" transform="translate(656,628)"/>
<path d="M0 0 C2.74661128 10.10722891 4.61852542 20.32145082 6.4375 30.625 C6.58929718 31.47718109 6.74109436 32.32936218 6.89749146 33.20736694 C14 73.08874408 14 73.08874408 14 79 C-14.38 79 -42.76 79 -72 79 C-70.87335815 71.11350706 -70.87335815 71.11350706 -69.6171875 68.23828125 C-69.20291504 67.28187744 -69.20291504 67.28187744 -68.78027344 66.30615234 C-68.4815332 65.64824707 -68.18279297 64.9903418 -67.875 64.3125 C-67.56079102 63.61334473 -67.24658203 62.91418945 -66.92285156 62.19384766 C-56.90645708 40.3148801 -28.04222224 0 0 0 Z " fill="#FBFBF9" transform="translate(374,519)"/>
<path d="M0 0 C26.22450306 8.74150102 45.80594431 32.3303424 57.88671875 56.40234375 C62.50162452 66.09173976 66.23583183 76.41499095 68 87 C45.56 87 23.12 87 0 87 C0 58.29 0 29.58 0 0 Z " fill="#FBFBFA" transform="translate(656,510)"/>
<path d="M0 0 C15.18 0 30.36 0 46 0 C47.32 2.31 48.64 4.62 50 7 C49.67 7.66 49.34 8.32 49 9 C46 4.25 46 4.25 46 2 C31.15 2.33 16.3 2.66 1 3 C0.67 2.01 0.34 1.02 0 0 Z " fill="#04174B" transform="translate(474,658)"/>
<path d="M0 0 C4 5 4 5 5 8 C3.68 7.67 2.36 7.34 1 7 C1 26.8 1 46.6 1 67 C0.67 67 0.34 67 0 67 C0 44.89 0 22.78 0 0 Z " fill="#F2F3F6" transform="translate(565,333)"/>
<path d="M0 0 C0.33 0.66 0.66 1.32 1 2 C3.52733235 2.65555119 3.52733235 2.65555119 6 3 C6 3.66 6 4.32 6 5 C3.36 5 0.72 5 -2 5 C-1.34 3.35 -0.68 1.7 0 0 Z " fill="#061647" transform="translate(343,453)"/>
<path d="M0 0 C0.33 0.66 0.66 1.32 1 2 C0.01 2.495 0.01 2.495 -1 3 C-1 3.99 -1 4.98 -1 6 C-2.98 6 -4.96 6 -7 6 C-2.25 1.125 -2.25 1.125 0 0 Z " fill="#071746" transform="translate(331,495)"/>
<path d="M0 0 C-0.99 1.98 -1.98 3.96 -3 6 C-3.33 5.01 -3.66 4.02 -4 3 C-6.97 2.505 -6.97 2.505 -10 2 C-10 1.67 -10 1.34 -10 1 C-6.59437148 0.22157062 -3.49234244 -0.09978121 0 0 Z " fill="#0A1B4B" transform="translate(605,428)"/>
<path d="M0 0 C4.75 0.75 4.75 0.75 7 3 C4.69 3 2.38 3 0 3 C0 2.01 0 1.02 0 0 Z " fill="#15234E" transform="translate(350,756)"/>
<path d="M0 0 C0 3.57575896 -1.08840607 5.05295935 -3 8 C-3.99 7.67 -4.98 7.34 -6 7 C-4.02 4.69 -2.04 2.38 0 0 Z " fill="#051442" transform="translate(431,303)"/>
</svg>
